<?xml version="1.0" encoding="UTF-8" standalone="no"?>
<!-- Created with Inkscape (http://www.inkscape.org/) -->

<svg
   width="96.10807mm"
   height="117.03705mm"
   viewBox="0 0 96.10807 117.03705"
   version="1.1"
   id="svg1"
   xml:space="preserve"
   xmlns:inkscape="http://www.inkscape.org/namespaces/inkscape"
   xmlns:sodipodi="http://sodipodi.sourceforge.net/DTD/sodipodi-0.dtd"
   xmlns="http://www.w3.org/2000/svg"
   xmlns:svg="http://www.w3.org/2000/svg"><sodipodi:namedview
     id="namedview1"
     pagecolor="#505050"
     bordercolor="#eeeeee"
     borderopacity="1"
     inkscape:showpageshadow="0"
     inkscape:pageopacity="0"
     inkscape:pagecheckerboard="0"
     inkscape:deskcolor="#505050"
     inkscape:document-units="mm"><inkscape:page
       x="0"
       y="0"
       width="96.10807"
       height="117.03705"
       id="page2"
       margin="0"
       bleed="0" /></sodipodi:namedview><defs
     id="defs1" /><g
     inkscape:label="Camada 1"
     inkscape:groupmode="layer"
     id="layer1"
     transform="translate(-55.953717,-74.681824)"><path
       style="fill:#000000"
       d="m 101.17809,191.38622 c -4.557747,-1.10319 -8.578833,-5.57382 -8.99189,-9.99715 l -0.143707,-1.53892 h 11.965277 11.96528 l -0.14371,1.53892 c -0.10409,1.11469 -0.39257,2.05758 -1.04645,3.42031 -2.48291,5.17451 -8.12665,7.90281 -13.6048,6.57684 z M 55.953717,170.63817 v -3.0336 l 6.053717,-6.05049 6.053718,-6.05048 0.07593,-17.97493 c 0.07356,-17.41424 0.09158,-18.05391 0.577527,-20.50711 2.187258,-11.0419 7.411806,-19.364024 15.499467,-24.688914 2.94048,-1.936 5.363946,-3.042705 9.038739,-4.127665 l 1.716216,-0.50669 0.114414,-3.17948 c 0.106329,-2.95478 0.164254,-3.28465 0.819622,-4.66753 3.266527,-6.89262 12.942873,-6.89262 16.209393,0 0.65537,1.38288 0.7133,1.71275 0.81963,4.66753 l 0.11441,3.17948 1.71622,0.50669 c 8.45092,2.495075 14.88748,7.498135 19.50894,15.164119 2.30355,3.82107 3.98708,8.39119 5.02927,13.65246 0.48595,2.4532 0.50396,3.09287 0.57753,20.50711 l 0.0759,17.97493 6.05372,6.05048 6.05372,6.05049 v 3.0336 3.0336 H 104.00777 55.953717 Z"
       id="path1" /></g></svg>
